<svg width="610" height="94" viewBox="0 0 610 94" fill="none" xmlns="http://www.w3.org/2000/svg">
<g clip-path="url(#clip0_657_84)">
<path d="M399.23 45.77C401.01 44.69 402.06 42.77 402.06 40.35C402.06 36.08 398.55 33.43 392.89 33.43H376V59.18H393.58C399.85 59.18 403.44 56.48 403.44 51.78C403.44 49.55 402.63 46.93 399.23 45.77ZM392.48 43.95H380.39V37.57H392.48C397.03 37.57 397.64 39.18 397.64 40.76C397.64 42.34 397.03 43.95 392.48 43.95ZM380.39 48.1H393.07C398.32 48.1 398.93 50.08 398.93 51.57C398.93 53.06 398.32 55.04 393.07 55.04H380.39V48.11V48.1Z" fill="#2E6FF2"/>
<path d="M417.54 33.43L403.38 59.18H408.33L411.86 52.67H427.3L430.83 59.18H435.85L421.69 33.43H417.54ZM425.06 48.52H414.1L419.58 38.43L425.06 48.52Z" fill="#2E6FF2"/>
<path d="M450.21 43.85C445.16 43.45 440.62 42.9 440.62 40.52C440.62 39.94 440.85 39.43 441.31 38.97C442.6 37.69 445.71 36.89 449.24 36.92C453.18 36.95 456.53 38.14 458.69 40.27L459.18 40.76L462.66 37.81L462.01 37.23C458.78 34.36 454.08 32.71 449.11 32.71C441.47 32.71 436.13 35.97 436.13 40.63C436.13 46.33 443.76 47.64 449.5 48.14C455.75 48.67 458.92 49.35 458.92 51.61C458.92 54.17 455.73 55.7 450.4 55.7C445.66 55.7 441.92 54.34 438.61 51.42L438.06 50.93L434.98 54.22L435.57 54.74C439.36 58.08 444.57 59.91 450.23 59.91C458.24 59.91 463.42 56.57 463.42 51.4C463.42 45.7 457.08 44.41 450.22 43.86L450.21 43.85Z" fill="#2E6FF2"/>
<path d="M471.99 33.43H467.57V59.18H471.99V33.43Z" fill="#2E6FF2"/>
<path d="M492.11 36.91C495.04 36.91 498.96 37.65 501.05 41.18L501.41 41.79L505.56 39.72L505.11 39.01C502.53 34.94 497.92 32.7 492.15 32.7C482.63 32.7 476.71 37.91 476.71 46.3C476.71 54.69 482.59 59.9 492.04 59.9C497.91 59.9 502.55 57.66 505.11 53.59L505.55 52.88L501.39 50.8L501.03 51.42C499.01 54.94 495.06 55.68 492.1 55.68C485.17 55.68 481.19 52.26 481.19 46.29C481.19 40.32 485.17 36.9 492.1 36.9L492.11 36.91Z" fill="#2E6FF2"/>
<path d="M525.89 33.62C523.38 35.82 520.59 37.25 518.04 37.63L517.4 37.73V41.9L518.27 41.76C520.87 41.35 523.07 40.55 524.94 39.32V59.18H529.36V33.43H526.1L525.89 33.62Z" fill="#2E6FF2"/>
<path d="M548.89 32.7C539.75 32.7 534.08 37.91 534.08 46.3C534.08 54.69 539.76 59.9 548.89 59.9C558.02 59.9 563.7 54.69 563.7 46.3C563.7 37.91 558.02 32.7 548.89 32.7ZM559.22 46.3C559.22 52.35 555.55 55.69 548.9 55.69C542.25 55.69 538.58 52.36 538.58 46.3C538.58 40.24 542.25 36.91 548.9 36.91C555.55 36.91 559.22 40.24 559.22 46.3Z" fill="#2E6FF2"/>
<path d="M581.44 32.7C572.3 32.7 566.63 37.91 566.63 46.3C566.63 54.69 572.31 59.9 581.44 59.9C590.57 59.9 596.25 54.69 596.25 46.3C596.25 37.91 590.57 32.7 581.44 32.7ZM591.76 46.3C591.76 52.35 588.09 55.69 581.44 55.69C574.79 55.69 571.12 52.36 571.12 46.3C571.12 40.24 574.79 36.91 581.44 36.91C588.09 36.91 591.76 40.24 591.76 46.3Z" fill="#2E6FF2"/>
<path d="M110.743 33.4561L96.5661 59.2207H101.656L105.172 52.742H120.461L123.977 59.2207H129.137L114.96 33.4561H110.743ZM107.476 48.4763L112.816 38.6531L118.156 48.4763H107.476Z" fill="#2E6FF2"/>
<path d="M136.02 33.4561H131.481V59.2207H154.504V54.8849H136.02V33.4561Z" fill="#2E6FF2"/>
<path d="M168.691 49.3675H179.651V51.4703C177.688 54.8949 173.309 55.6159 169.963 55.6159C162.76 55.6159 158.792 52.3215 158.792 46.3434C158.792 40.3654 162.69 37.071 169.763 37.071C173.861 37.071 176.836 38.3127 178.88 40.8661L179.361 41.4669L183.258 38.7432L182.667 38.0523C180.593 35.6291 176.676 32.7352 169.763 32.7352C160.155 32.7352 154.184 37.9522 154.184 46.3434C154.184 54.7347 160.195 59.9517 169.863 59.9517C176.345 59.9517 181.795 57.2681 184.11 52.9323L184.21 52.7521V45.0417H168.701V49.3775L168.691 49.3675Z" fill="#2E6FF2"/>
<path d="M202.374 32.7352C192.806 32.7352 186.865 37.9522 186.865 46.3434C186.865 54.7347 192.806 59.9517 202.374 59.9517C211.942 59.9517 217.883 54.7347 217.883 46.3434C217.883 37.9522 211.942 32.7352 202.374 32.7352ZM202.374 55.6159C195.551 55.6159 191.473 52.1512 191.473 46.3434C191.473 40.5356 195.551 37.071 202.374 37.071C209.197 37.071 213.274 40.5356 213.274 46.3434C213.274 52.1512 209.197 55.6159 202.374 55.6159Z" fill="#2E6FF2"/>
<path d="M249.542 41.7172C249.542 36.7005 245.595 33.4561 239.473 33.4561H222.451V59.2207H227.03V49.9883H237.309L245.304 59.2207H251.295L242.819 49.6178C246.997 48.6365 249.532 45.7126 249.532 41.7172H249.542ZM226.99 45.6525V37.792H239.263C241.848 37.792 244.923 38.4729 244.923 41.7272C244.923 44.9816 241.848 45.6625 239.263 45.6625H226.99V45.6525Z" fill="#2E6FF2"/>
<path d="M258.889 33.4561H254.351V59.2207H258.889V33.4561Z" fill="#2E6FF2"/>
<path d="M262.005 37.7219H273.386V59.2207H277.925V37.7219H289.336V33.4561H262.005V37.7219Z" fill="#2E6FF2"/>
<path d="M315.205 43.9703H296.991V33.4561H292.452V59.2207H296.991V48.3662H315.205V59.2207H319.753V33.4561H315.205V43.9703Z" fill="#2E6FF2"/>
<path d="M342.205 47.7253L330.493 33.4561H326.115V59.2207H330.583V40.6358L341.644 54.0238H342.626L353.686 40.6358V59.2207H358.235V33.4561H353.917L342.205 47.7253Z" fill="#2E6FF2"/>
<path d="M46.5226 76.8845C30.3123 76.8845 17.1177 63.7068 17.1177 47.495C17.1177 31.2832 30.3023 18.1155 46.5226 18.1155C58.9759 18.1155 69.6158 25.906 73.8938 36.8607L76.4085 32.4047C70.8781 21.4901 59.587 14 46.5226 14C28.008 14 13 29.0001 13 47.505C13 66.0099 28.008 81.01 46.5226 81.01C54.9684 81.01 62.6628 77.8658 68.5638 72.7089H61.5707C57.1625 75.3524 52.0229 76.8945 46.5226 76.8945V76.8845Z" fill="#2E6FF2"/>
<path d="M32.6367 33.4561V59.2207H37.1752V50.3989H49.5884C55.6998 50.3989 59.6572 47.0744 59.6572 41.9275C59.6572 36.7806 55.7098 33.4561 49.5884 33.4561H32.6367ZM55.0486 41.9275C55.0486 45.3521 51.9728 46.0631 49.388 46.0631H37.1752V37.7819H49.388C51.9728 37.7819 55.0486 38.5029 55.0486 41.9175V41.9275Z" fill="#2E6FF2"/>
<path d="M72.6013 52.5618L64.7367 38.8033H59.6672L70.1367 57.0879L64.7767 66.12H69.766L85.3652 38.8033H80.3558L72.6013 52.5618Z" fill="#2E6FF2"/>
</g>
<defs>
<clipPath id="clip0_657_84">
<rect width="584" height="68" fill="white" transform="translate(13 14)"/>
</clipPath>
</defs>
</svg>
